<svg xmlns="http://www.w3.org/2000/svg" viewBox="0 0 64 64">
  <rect width="64" height="64" rx="14" fill="#1F4D2C"/>
  <path d="M32 50 C32 38 32 28 32 16" stroke="#D9A33E" stroke-width="2.5" stroke-linecap="round" fill="none"/>
  <g fill="#D9A33E">
    <ellipse cx="26" cy="22" rx="4.2" ry="2.6" transform="rotate(-35 26 22)"/>
    <ellipse cx="38" cy="22" rx="4.2" ry="2.6" transform="rotate(35 38 22)"/>
    <ellipse cx="24" cy="30" rx="4.2" ry="2.6" transform="rotate(-35 24 30)"/>
    <ellipse cx="40" cy="30" rx="4.2" ry="2.6" transform="rotate(35 40 30)"/>
    <ellipse cx="23" cy="38" rx="4.2" ry="2.6" transform="rotate(-35 23 38)"/>
    <ellipse cx="41" cy="38" rx="4.2" ry="2.6" transform="rotate(35 41 38)"/>
  </g>
  <path d="M16 50 Q24 44 32 50 T48 50" stroke="#62A8B2" stroke-width="2.5" fill="none" stroke-linecap="round"/>
</svg>
